<mxfile host="app.diagrams.net" modified="2020-12-02T08:40:21.746Z" agent="5.0 (Macintosh; Intel Mac OS X 10_15_7) AppleWebKit/537.36 (KHTML, like Gecko) Chrome/86.0.4240.111 Safari/537.36" etag="qoS-tlLoP6kAmV-BL_Ap" version="13.10.5" type="github">
  <diagram id="-N9uZjTop2ZxeEDGDAec" name="Page-1">
    <mxGraphModel dx="1928" dy="959" grid="1" gridSize="10" guides="1" tooltips="1" connect="1" arrows="1" fold="1" page="1" pageScale="1" pageWidth="850" pageHeight="1100" math="0" shadow="0">
      <root>
        <mxCell id="0" />
        <mxCell id="1" parent="0" />
        <mxCell id="5" value="" style="endArrow=classic;html=1;exitX=0.5;exitY=1;exitDx=0;exitDy=0;entryX=0.5;entryY=0;entryDx=0;entryDy=0;" parent="1" source="6" edge="1">
          <mxGeometry width="50" height="50" relative="1" as="geometry">
            <mxPoint x="420" y="100" as="sourcePoint" />
            <mxPoint x="420" y="120" as="targetPoint" />
          </mxGeometry>
        </mxCell>
        <mxCell id="6" value="&lt;font face=&quot;helvetica&quot;&gt;1.注册设备成功&lt;/font&gt;" style="rounded=1;whiteSpace=wrap;html=1;fillColor=#006EFF;strokeColor=#006EFF;fontColor=#FFFFFF;" parent="1" vertex="1">
          <mxGeometry x="360" y="40" width="120" height="60" as="geometry" />
        </mxCell>
        <mxCell id="10" value="是" style="text;html=1;strokeColor=none;fillColor=none;align=center;verticalAlign=middle;whiteSpace=wrap;rounded=0;" parent="1" vertex="1">
          <mxGeometry x="430" y="190" width="40" height="20" as="geometry" />
        </mxCell>
        <mxCell id="214" style="edgeStyle=orthogonalEdgeStyle;rounded=0;orthogonalLoop=1;jettySize=auto;html=1;exitX=0;exitY=0.5;exitDx=0;exitDy=0;entryX=1;entryY=0.5;entryDx=0;entryDy=0;" parent="1" source="11" target="155" edge="1">
          <mxGeometry relative="1" as="geometry" />
        </mxCell>
        <mxCell id="11" value="需要个性化推送能力" style="rhombus;whiteSpace=wrap;html=1;fillColor=#FF7200;strokeColor=#FF7200;fontColor=#FFFFFF;" parent="1" vertex="1">
          <mxGeometry x="350" y="120" width="140" height="60" as="geometry" />
        </mxCell>
        <mxCell id="28" value="" style="edgeStyle=orthogonalEdgeStyle;rounded=0;orthogonalLoop=1;jettySize=auto;html=1;exitX=0.5;exitY=1;exitDx=0;exitDy=0;" parent="1" source="11" edge="1">
          <mxGeometry relative="1" as="geometry">
            <mxPoint x="430" y="290" as="sourcePoint" />
            <mxPoint x="420" y="220" as="targetPoint" />
          </mxGeometry>
        </mxCell>
        <mxCell id="155" value="&lt;font face=&quot;helvetica&quot;&gt;流程结束&lt;br&gt;&lt;/font&gt;" style="rounded=1;whiteSpace=wrap;html=1;fillColor=#006EFF;strokeColor=#006EFF;fontColor=#FFFFFF;" parent="1" vertex="1">
          <mxGeometry x="165" y="120" width="120" height="60" as="geometry" />
        </mxCell>
        <mxCell id="157" value="否" style="text;html=1;strokeColor=none;fillColor=none;align=center;verticalAlign=middle;whiteSpace=wrap;rounded=0;" parent="1" vertex="1">
          <mxGeometry x="310" y="130" width="40" height="20" as="geometry" />
        </mxCell>
        <mxCell id="166" style="edgeStyle=orthogonalEdgeStyle;rounded=0;orthogonalLoop=1;jettySize=auto;html=1;exitX=0.5;exitY=1;exitDx=0;exitDy=0;entryX=0.5;entryY=0;entryDx=0;entryDy=0;" parent="1" source="159" target="160" edge="1">
          <mxGeometry relative="1" as="geometry" />
        </mxCell>
        <mxCell id="159" value="&lt;font face=&quot;helvetica&quot;&gt;2.App获取要绑定的用户属性列表(例如“昵称”)&lt;/font&gt;" style="rounded=0;whiteSpace=wrap;html=1;fillColor=#00A4FF;strokeColor=#00A4FF;fontColor=#FFFFFF;" parent="1" vertex="1">
          <mxGeometry x="360" y="220" width="120" height="60" as="geometry" />
        </mxCell>
        <mxCell id="164" style="edgeStyle=orthogonalEdgeStyle;rounded=0;orthogonalLoop=1;jettySize=auto;html=1;exitX=0;exitY=0.5;exitDx=0;exitDy=0;entryX=0.5;entryY=1;entryDx=0;entryDy=0;" parent="1" source="160" target="155" edge="1">
          <mxGeometry relative="1" as="geometry">
            <mxPoint x="295" y="340" as="targetPoint" />
          </mxGeometry>
        </mxCell>
        <mxCell id="168" style="edgeStyle=orthogonalEdgeStyle;rounded=0;orthogonalLoop=1;jettySize=auto;html=1;exitX=0.5;exitY=1;exitDx=0;exitDy=0;entryX=0.5;entryY=0;entryDx=0;entryDy=0;" parent="1" source="160" target="167" edge="1">
          <mxGeometry relative="1" as="geometry" />
        </mxCell>
        <mxCell id="160" value="是否获取成功" style="rhombus;whiteSpace=wrap;html=1;fillColor=#FF7200;strokeColor=#FF7200;fontColor=#FFFFFF;" parent="1" vertex="1">
          <mxGeometry x="350" y="320" width="140" height="60" as="geometry" />
        </mxCell>
        <mxCell id="165" value="否" style="text;html=1;strokeColor=none;fillColor=none;align=center;verticalAlign=middle;whiteSpace=wrap;rounded=0;" parent="1" vertex="1">
          <mxGeometry x="310" y="320" width="40" height="20" as="geometry" />
        </mxCell>
        <mxCell id="172" style="edgeStyle=orthogonalEdgeStyle;rounded=0;orthogonalLoop=1;jettySize=auto;html=1;exitX=0.5;exitY=1;exitDx=0;exitDy=0;entryX=0.5;entryY=0;entryDx=0;entryDy=0;" parent="1" source="167" target="170" edge="1">
          <mxGeometry relative="1" as="geometry" />
        </mxCell>
        <mxCell id="176" style="edgeStyle=orthogonalEdgeStyle;rounded=0;orthogonalLoop=1;jettySize=auto;html=1;exitX=0;exitY=0.5;exitDx=0;exitDy=0;entryX=0.5;entryY=0;entryDx=0;entryDy=0;" parent="1" source="167" target="175" edge="1">
          <mxGeometry relative="1" as="geometry" />
        </mxCell>
        <mxCell id="167" value="历史绑定的属性需要关心推送" style="rhombus;whiteSpace=wrap;html=1;fillColor=#FF7200;strokeColor=#FF7200;fontColor=#FFFFFF;" parent="1" vertex="1">
          <mxGeometry x="315" y="420" width="210" height="60" as="geometry" />
        </mxCell>
        <mxCell id="169" value="是" style="text;html=1;strokeColor=none;fillColor=none;align=center;verticalAlign=middle;whiteSpace=wrap;rounded=0;" parent="1" vertex="1">
          <mxGeometry x="430" y="390" width="40" height="20" as="geometry" />
        </mxCell>
        <mxCell id="173" style="edgeStyle=orthogonalEdgeStyle;rounded=0;orthogonalLoop=1;jettySize=auto;html=1;exitX=0.5;exitY=1;exitDx=0;exitDy=0;entryX=0.5;entryY=0;entryDx=0;entryDy=0;" parent="1" source="170" target="171" edge="1">
          <mxGeometry relative="1" as="geometry" />
        </mxCell>
        <mxCell id="170" value="&lt;font&gt;&lt;font face=&quot;helvetica&quot;&gt;3.按需调用，解绑历史属性:&amp;nbsp;&lt;/font&gt;&lt;span style=&quot;font-family: &amp;quot;helvetica&amp;quot;&quot;&gt;del&lt;/span&gt;&lt;font face=&quot;helvetica&quot;&gt;Attributes, 例如解绑&quot;年龄&quot;属性&lt;/font&gt;&lt;/font&gt;" style="rounded=0;whiteSpace=wrap;html=1;fillColor=#00A4FF;strokeColor=#00A4FF;fontColor=#FFFFFF;" parent="1" vertex="1">
          <mxGeometry x="360" y="520" width="120" height="60" as="geometry" />
        </mxCell>
        <mxCell id="179" style="edgeStyle=orthogonalEdgeStyle;rounded=0;orthogonalLoop=1;jettySize=auto;html=1;exitX=0.5;exitY=1;exitDx=0;exitDy=0;entryX=0.5;entryY=0;entryDx=0;entryDy=0;" parent="1" source="171" target="178" edge="1">
          <mxGeometry relative="1" as="geometry" />
        </mxCell>
        <mxCell id="171" value="&lt;font face=&quot;helvetica&quot;&gt;5.绑定新属性列表：&lt;br&gt;调用upsertAttributes例如绑定&quot;昵称&quot;属性&lt;/font&gt;" style="rounded=0;whiteSpace=wrap;html=1;align=left;fillColor=#00A4FF;strokeColor=#00A4FF;fontColor=#FFFFFF;" parent="1" vertex="1">
          <mxGeometry x="360" y="620" width="120" height="60" as="geometry" />
        </mxCell>
        <mxCell id="174" value="是" style="text;html=1;strokeColor=none;fillColor=none;align=center;verticalAlign=middle;whiteSpace=wrap;rounded=0;" parent="1" vertex="1">
          <mxGeometry x="430" y="490" width="40" height="20" as="geometry" />
        </mxCell>
        <mxCell id="180" style="edgeStyle=orthogonalEdgeStyle;rounded=0;orthogonalLoop=1;jettySize=auto;html=1;exitX=0.5;exitY=1;exitDx=0;exitDy=0;entryX=0;entryY=0.5;entryDx=0;entryDy=0;" parent="1" source="175" target="178" edge="1">
          <mxGeometry relative="1" as="geometry" />
        </mxCell>
        <mxCell id="175" value="&lt;font face=&quot;helvetica&quot;&gt;4.清空历史属性并绑定新属性:clearAndAppendAttributes&lt;/font&gt;" style="rounded=0;whiteSpace=wrap;html=1;align=left;fillColor=#00A4FF;strokeColor=#00A4FF;fontColor=#FFFFFF;" parent="1" vertex="1">
          <mxGeometry x="160" y="520" width="165" height="60" as="geometry" />
        </mxCell>
        <mxCell id="177" value="否" style="text;html=1;strokeColor=none;fillColor=none;align=center;verticalAlign=middle;whiteSpace=wrap;rounded=0;" parent="1" vertex="1">
          <mxGeometry x="260" y="420" width="40" height="20" as="geometry" />
        </mxCell>
        <mxCell id="183" style="edgeStyle=orthogonalEdgeStyle;rounded=0;orthogonalLoop=1;jettySize=auto;html=1;exitX=1;exitY=0.5;exitDx=0;exitDy=0;entryX=0;entryY=0.5;entryDx=0;entryDy=0;" parent="1" source="178" target="182" edge="1">
          <mxGeometry relative="1" as="geometry" />
        </mxCell>
        <mxCell id="208" style="edgeStyle=orthogonalEdgeStyle;rounded=0;orthogonalLoop=1;jettySize=auto;html=1;exitX=0.5;exitY=1;exitDx=0;exitDy=0;entryX=0.5;entryY=0;entryDx=0;entryDy=0;" parent="1" source="178" target="206" edge="1">
          <mxGeometry relative="1" as="geometry" />
        </mxCell>
        <mxCell id="178" value="&lt;font face=&quot;helvetica&quot;&gt;6.用户正常使用App&lt;br&gt;&lt;/font&gt;" style="rounded=0;whiteSpace=wrap;html=1;fillColor=#00A4FF;strokeColor=#00A4FF;fontColor=#FFFFFF;" parent="1" vertex="1">
          <mxGeometry x="360" y="720" width="120" height="60" as="geometry" />
        </mxCell>
        <mxCell id="184" style="edgeStyle=orthogonalEdgeStyle;rounded=0;orthogonalLoop=1;jettySize=auto;html=1;exitX=0.5;exitY=0;exitDx=0;exitDy=0;entryX=1;entryY=0.5;entryDx=0;entryDy=0;" parent="1" source="182" target="167" edge="1">
          <mxGeometry relative="1" as="geometry" />
        </mxCell>
        <mxCell id="186" style="edgeStyle=orthogonalEdgeStyle;rounded=0;orthogonalLoop=1;jettySize=auto;html=1;exitX=0.5;exitY=1;exitDx=0;exitDy=0;entryX=1;entryY=0.75;entryDx=0;entryDy=0;" parent="1" source="182" target="178" edge="1">
          <mxGeometry relative="1" as="geometry" />
        </mxCell>
        <mxCell id="182" value="需要变更绑定的属性列表" style="rhombus;whiteSpace=wrap;html=1;fillColor=#FF7200;strokeColor=#FF7200;fontColor=#FFFFFF;" parent="1" vertex="1">
          <mxGeometry x="543" y="720" width="177" height="60" as="geometry" />
        </mxCell>
        <mxCell id="185" value="是" style="text;html=1;strokeColor=none;fillColor=none;align=center;verticalAlign=middle;whiteSpace=wrap;rounded=0;" parent="1" vertex="1">
          <mxGeometry x="630" y="690" width="40" height="20" as="geometry" />
        </mxCell>
        <mxCell id="187" value="否" style="text;html=1;strokeColor=none;fillColor=none;align=center;verticalAlign=middle;whiteSpace=wrap;rounded=0;" parent="1" vertex="1">
          <mxGeometry x="630" y="780" width="40" height="20" as="geometry" />
        </mxCell>
        <mxCell id="209" style="edgeStyle=orthogonalEdgeStyle;rounded=0;orthogonalLoop=1;jettySize=auto;html=1;exitX=0.5;exitY=1;exitDx=0;exitDy=0;entryX=0.5;entryY=0;entryDx=0;entryDy=0;" parent="1" source="206" target="207" edge="1">
          <mxGeometry relative="1" as="geometry" />
        </mxCell>
        <mxCell id="211" style="edgeStyle=orthogonalEdgeStyle;rounded=0;orthogonalLoop=1;jettySize=auto;html=1;exitX=0;exitY=0.5;exitDx=0;exitDy=0;entryX=0;entryY=0.75;entryDx=0;entryDy=0;" parent="1" source="206" target="178" edge="1">
          <mxGeometry relative="1" as="geometry" />
        </mxCell>
        <mxCell id="206" value="完全关闭个性化推送能力" style="rhombus;whiteSpace=wrap;html=1;fillColor=#FF7200;strokeColor=#FF7200;fontColor=#FFFFFF;" parent="1" vertex="1">
          <mxGeometry x="331.5" y="820" width="177" height="60" as="geometry" />
        </mxCell>
        <mxCell id="207" value="&lt;font face=&quot;helvetica&quot;&gt;&lt;font&gt;7.调用清空属性:clearAttributes&lt;/font&gt;&lt;br&gt;&lt;/font&gt;" style="rounded=1;whiteSpace=wrap;html=1;fillColor=#006EFF;strokeColor=#006EFF;fontColor=#FFFFFF;" parent="1" vertex="1">
          <mxGeometry x="360" y="920" width="120" height="60" as="geometry" />
        </mxCell>
        <mxCell id="210" value="是" style="text;html=1;strokeColor=none;fillColor=none;align=center;verticalAlign=middle;whiteSpace=wrap;rounded=0;" parent="1" vertex="1">
          <mxGeometry x="425" y="890" width="40" height="20" as="geometry" />
        </mxCell>
        <mxCell id="212" value="否" style="text;html=1;strokeColor=none;fillColor=none;align=center;verticalAlign=middle;whiteSpace=wrap;rounded=0;" parent="1" vertex="1">
          <mxGeometry x="270" y="790" width="40" height="20" as="geometry" />
        </mxCell>
        <mxCell id="Zi0HeuBh0QmhvPsaI_9m-220" value="&lt;h1&gt;备注&lt;/h1&gt;&lt;p&gt;&lt;span style=&quot;color: rgb(51 , 51 , 51) ; text-align: center&quot;&gt;支持的用户属性需要到 Web 管理台或者 RestAPI 先进行配置&lt;/span&gt;&lt;br&gt;&lt;/p&gt;" style="text;html=1;strokeColor=#82b366;spacing=5;spacingTop=-20;whiteSpace=wrap;overflow=hidden;rounded=0;fillColor=#d5e8d4;" parent="1" vertex="1">
          <mxGeometry x="160" y="1010" width="540" height="120" as="geometry" />
        </mxCell>
      </root>
    </mxGraphModel>
  </diagram>
</mxfile>
